<?xml version="1.0" encoding="utf-8"?>
<!-- Generator: Adobe Illustrator 23.0.1, SVG Export Plug-In . SVG Version: 6.00 Build 0)  -->
<svg version="1.1" id="레이어_1" xmlns="http://www.w3.org/2000/svg" xmlns:xlink="http://www.w3.org/1999/xlink" x="0px"
	 y="0px" viewBox="0 0 156.83 80.36" style="enable-background:new 0 0 156.83 80.36;" xml:space="preserve">
<style type="text/css">
	.st0{fill:#CFE6F7;}
	.st1{fill:#E9F5F7;}
	.st2{fill:#F7FCFE;}
</style>
<polygon class="st0" points="127.62,50.14 117.8,45.64 107.97,50.14 97.48,47.89 97.48,37.93 87.66,15.43 87.66,32.79 84.38,50.14 
	73.24,54.64 64.72,42.43 58.83,23.14 52.93,0 49.65,24.43 49.65,47.57 43.1,54.64 34.58,38.57 29.34,27.32 22.14,54.64 3.79,62.36 
	0,67.96 3.99,80.36 31.95,80.36 62.1,80.36 78.48,80.36 106.66,80.36 116.57,80.36 127.06,80.36 144.26,80.36 154.18,80.36 
	156.83,67.67 149.9,56.57 137.45,55.93 "/>
<polygon class="st1" points="117.48,52.25 108.52,48.15 99.56,52.25 90.01,50.2 90.01,41.13 87.81,20.68 81.05,36.45 78.06,52.25 
	67.91,56.34 60.14,45.23 54.77,27.68 52.13,6.62 46.41,28.85 46.41,49.91 40.44,56.34 32.67,41.72 29.39,27.32 22.17,54.64 
	3.8,62.36 0,67.96 4,80.36 30.27,79.74 57.76,79.74 72.69,79.74 98.37,79.74 107.41,79.74 116.96,79.74 132.64,79.74 141.69,79.74 
	144.1,68.19 137.79,58.1 126.44,57.51 "/>
<polygon class="st2" points="107.07,56.71 99.31,53.34 91.55,56.71 83.27,55.02 83.27,47.56 81.37,30.72 75.51,43.71 72.93,56.71 
	64.13,60.08 57.41,50.93 52.75,36.49 50.47,19.15 45.51,37.45 45.51,54.78 40.34,60.08 33.61,48.04 30.77,36.19 24.52,58.68 
	8.6,65.03 5.32,69.64 8.78,79.85 31.53,79.34 55.34,79.34 68.27,79.34 90.52,79.34 98.34,79.34 106.62,79.34 120.2,79.34 
	128.04,79.34 130.12,69.83 124.66,61.52 114.83,61.04 "/>
</svg>
