<?xml version="1.0" encoding="utf-8"?>
<!-- Generator: Adobe Illustrator 23.0.1, SVG Export Plug-In . SVG Version: 6.00 Build 0)  -->
<svg version="1.1" id="레이어_1" xmlns="http://www.w3.org/2000/svg" xmlns:xlink="http://www.w3.org/1999/xlink" x="0px"
	 y="0px" viewBox="0 0 55.41 57.48" style="enable-background:new 0 0 55.41 57.48;" xml:space="preserve">
<style type="text/css">
	.st0{fill:#C8E8F7;}
	.st1{fill:#E8F3F9;}
	.st2{fill:#F7FCFE;}
</style>
<polygon class="st0" points="50.71,42.98 44.85,37.61 38.62,37.61 35.26,37.61 35.26,30.22 35.26,26.86 31.9,22.5 31.9,13.77 
	29.21,9.07 26.86,0 24.85,11.42 24.85,21.49 26.53,29.55 27.54,34.56 24.85,40.3 17.13,41.64 17.13,36.6 12.42,30.22 8.39,37.27 
	4.03,46.68 0,48.69 3.36,56.41 8.06,56.41 47.35,56.41 50.71,51.71 55.41,52.38 55.41,47.68 "/>
<polygon class="st1" points="46.92,46.21 41.51,41.7 35.74,41.7 32.63,41.7 32.63,35.5 32.63,32.68 29.52,29.02 29.52,21.69 
	27.04,17.74 24.86,10.13 23,19.72 23,28.17 24.55,34.94 25.48,39.14 23,43.95 15.85,45.08 15.85,40.85 11.5,35.5 7.77,41.42 
	3.73,49.31 0,51 3.11,57.48 7.46,57.48 43.82,57.48 46.92,53.54 51.27,54.1 51.27,50.15 "/>
<polygon class="st2" points="40.71,48.55 36.42,44.97 31.85,44.97 29.39,44.97 29.39,40.06 29.39,37.83 26.92,34.92 26.92,29.12 
	24.95,25.99 23.23,19.96 21.75,27.55 21.75,34.25 22.98,39.61 23.72,42.94 21.75,46.76 16.09,47.65 16.09,44.3 12.64,40.06 
	9.68,44.75 6.48,51 3.53,52.34 5.99,57.48 9.44,57.48 38.25,57.48 40.71,54.35 44.16,54.8 44.16,51.67 "/>
</svg>
