<?xml version="1.0" encoding="utf-8"?>
<!-- Generator: Adobe Illustrator 23.0.1, SVG Export Plug-In . SVG Version: 6.00 Build 0)  -->
<svg version="1.1" id="레이어_1" xmlns="http://www.w3.org/2000/svg" xmlns:xlink="http://www.w3.org/1999/xlink" x="0px"
	 y="0px" viewBox="0 0 72.43 49.25" style="enable-background:new 0 0 72.43 49.25;" xml:space="preserve">
<style type="text/css">
	.st0{fill:#C8E8F7;}
	.st1{fill:#E8F3F9;}
	.st2{fill:#F7FCFE;}
</style>
<polygon class="st0" points="65.81,37.25 64.15,25.66 57.94,25.66 55.87,16.14 49.25,6.21 49.25,15.31 51.73,24 46.03,30.21 
	44.29,34.77 39.32,34.77 36.42,28.56 28.56,28.56 28.56,21.73 21.52,18.21 21.52,10.35 13.94,0 13.94,25.25 9.11,28.14 4.14,28.14 
	0,37.25 5.79,41.39 0,49.25 72.43,49.25 72.43,41.8 "/>
<polygon class="st1" points="65.9,40.36 64.27,31.77 58.15,31.77 56.11,24.71 49.58,17.35 49.58,24.1 52.02,30.54 46.4,35.14 
	44.68,38.52 39.78,38.52 36.93,33.91 29.17,33.91 29.17,28.85 22.24,26.25 22.24,20.42 14.76,12.75 14.76,31.46 9.99,33.61 
	5.1,33.61 1.02,40.36 6.73,43.42 1.02,49.25 72.43,49.25 72.43,43.73 "/>
<polygon class="st2" points="62.76,42.15 61.29,35.29 55.77,35.29 53.93,29.65 48.04,23.77 48.04,29.16 50.25,34.31 45.17,37.98 
	43.62,40.68 39.21,40.68 36.63,37 29.64,37 29.64,32.96 23.39,30.88 23.39,26.22 16.65,20.09 16.65,35.04 12.35,36.76 7.93,36.76 
	4.26,42.15 9.41,44.6 4.26,49.25 68.64,49.25 68.64,44.84 "/>
</svg>
